<?xml version="1.0" encoding="UTF-8"?>
<!DOCTYPE svg PUBLIC "-//W3C//DTD SVG 1.1//EN" "http://www.w3.org/Graphics/SVG/1.1/DTD/svg11.dtd">
<svg xmlns="http://www.w3.org/2000/svg" version="1.1" width="30px" height="30px" style="shape-rendering:geometricPrecision; text-rendering:geometricPrecision; image-rendering:optimizeQuality; fill-rule:evenodd; clip-rule:evenodd" xmlns:xlink="http://www.w3.org/1999/xlink">
<g><path style="opacity:1" fill="#faf9f8" d="M -0.5,-0.5 C 9.5,-0.5 19.5,-0.5 29.5,-0.5C 29.5,9.5 29.5,19.5 29.5,29.5C 19.5,29.5 9.5,29.5 -0.5,29.5C -0.5,19.5 -0.5,9.5 -0.5,-0.5 Z"/></g>
<g><path style="opacity:1" fill="#5c96d3" d="M 4.5,10.5 C 9.7473,10.6398 10.7473,12.8064 7.5,17C 2.38231,16.8242 1.38231,14.6576 4.5,10.5 Z"/></g>
<g><path style="opacity:1" fill="#969697" d="M 18.5,12.5 C 21.3965,12.1253 24.0632,12.6253 26.5,14C 25.1667,14.1667 23.8333,14.3333 22.5,14.5C 20.6672,14.4146 19.3339,13.7479 18.5,12.5 Z"/></g>
<g><path style="opacity:1" fill="#8d8e8f" d="M 10.5,12.5 C 12.8333,12.5 15.1667,12.5 17.5,12.5C 17.6495,13.552 17.4828,14.552 17,15.5C 15.0438,15.2155 12.8771,15.2155 10.5,15.5C 10.5,14.5 10.5,13.5 10.5,12.5 Z"/></g>
</svg>
